Coordinates
version=1
nRows=19
nColumns=36
inDegrees=yes

Units are S.I. units (second, meters, Newtons, ...)
If the header above contains a line with 'inDegrees', this indicates whether rotational values are in degrees (yes) or radians (no).

endheader
time	pelvis_tilt	pelvis_list	pelvis_rotation	pelvis_tx	pelvis_ty	pelvis_tz	hip_flexion_r	hip_adduction_r	hip_rotation_r	knee_angle_r	knee_angle_r_beta	ankle_angle_r	subtalar_angle_r	mtp_angle_r	hip_flexion_l	hip_adduction_l	hip_rotation_l	knee_angle_l	knee_angle_l_beta	ankle_angle_l	subtalar_angle_l	mtp_angle_l	lumbar_extension	lumbar_bending	lumbar_rotation	arm_flex_r	arm_add_r	arm_rot_r	elbow_flex_r	pro_sup_r	arm_flex_l	arm_add_l	arm_rot_l	elbow_flex_l	pro_sup_l
     30.20000000	     -6.73886222	     -4.81590999	     -3.43390427	      0.65344734	      0.90973709	      0.74314791	     31.72024146	      4.20433862	     -5.54867172	     18.91311622	      0.33009615	      4.60596808	     -3.32755768	     -7.49999987	      0.40034118	     -4.93845474	     -8.24030824	     22.62248566	      0.39483686	     26.26789344	      2.21259004	     -7.49999987	      6.69658346	      5.82429914	     -2.80891643	    -12.86553161	     -8.23317329	    -11.96719322	     30.65041332	     68.36261508	      6.95114287	    -11.21626318	     13.10957212	     28.79008834	     66.70545346
     30.21666670	     -6.98727523	     -4.82364541	     -3.24410585	      0.65218411	      0.90432860	      0.74617826	     31.50200964	      4.35217295	     -5.72377120	     19.74858364	      0.34467781	      4.30596575	     -3.30083103	     -7.49999987	      0.25624255	     -5.38119587	     -8.46786226	     23.17843921	      0.40454008	     25.80087509	      2.02930891	     -7.49999987	      7.00820910	      5.98865572	     -2.62628467	    -12.71499455	     -8.45795645	    -12.08542758	     31.16657492	     68.29903399	      6.61206531	    -10.91967349	     13.23480701	     29.10444976	     66.64980951
     30.23333330	     -7.01130104	     -5.00776555	     -3.25527894	      0.65158810	      0.90020723	      0.74962182	     31.01663005	      4.81097195	     -5.46594344	     20.47829378	      0.35741365	      4.00583400	     -3.55589400	     -7.49999987	      0.39636724	     -6.17656978	     -9.25151200	     24.64958705	      0.43021645	     25.58127179	      2.26759243	     -7.49999987	      6.88714005	      6.53284806	     -1.05984324	    -13.55251365	     -8.52510319	    -13.75327689	     32.65978779	     69.78955990	      7.69377544	    -10.01804187	     15.03744932	     26.70421534	     67.25363787
     30.25000000	     -6.84217286	     -4.94957282	     -3.26140071	      0.65237919	      0.90192044	      0.75287086	     30.32122410	      5.01205994	     -5.24148722	     21.23008708	      0.37053492	      4.38046458	     -3.60447134	     -7.49999987	      0.88918240	     -6.73860144	     -9.71485111	     27.10801799	      0.47312417	     24.94156615	      1.68236797	     -7.49999987	      6.57468227	      6.71957812	     -0.62412463	    -13.21530748	     -8.58182145	    -13.78671075	     32.73616255	     69.88336038	      7.20515511	     -9.80431413	     15.18547470	     26.46534485	     67.27886622
     30.26666670	     -6.70255836	     -4.90307818	     -3.26307671	      0.65416566	      0.91038389	      0.75649497	     29.45697350	      5.25941479	     -5.03056247	     21.72313284	      0.37914019	      5.38226081	     -3.44852766	     -7.49999987	      1.99234278	     -7.29112841	     -9.54269108	     30.83844529	      0.53823241	     23.70394692	      0.06220992	     -7.49999987	      6.52497741	      6.99051733	      0.07671166	    -12.78062073	     -8.83835339	    -13.31463137	     31.94715804	     71.97861791	      7.11313013	     -9.46228391	     16.79709675	     24.69028687	     67.18817411
     30.28333330	     -6.34447682	     -4.91128968	     -3.30747854	      0.65652100	      0.91975354	      0.76132915	     28.04074057	      5.65037321	     -4.88291216	     21.72546480	      0.37918089	      6.79762746	     -2.93311167	     -7.49999987	      3.30340033	     -7.90498662	     -9.08509299	     35.62755586	      0.62181815	     21.56605836	     -1.99156383	     -7.49999987	      6.29404770	      7.26333248	      0.39885356	    -11.66291415	     -8.94018956	    -12.90523937	     30.36723629	     71.63838050	      6.49469833	     -8.98564042	     16.16063401	     23.12756679	     66.62847738
     30.30000000	     -5.93472764	     -4.86305269	     -3.66643520	      0.65969765	      0.92415346	      0.76718694	     26.32471578	      6.23922960	     -4.25532860	     21.33977301	      0.37244930	      8.11089245	     -2.84315121	     -7.49999987	      4.72882378	     -8.42401659	     -8.64749705	     40.96861338	      0.71503719	     18.92348669	     -4.08269272	     -7.49999987	      6.13790003	      7.44287541	      0.97237630	    -10.21384295	     -9.29901247	    -10.91591271	     28.04819685	     72.57933706	      5.68052782	     -8.71641227	     15.96020624	     21.76214866	     66.29648657
     30.31666670	     -5.51335863	     -4.95051102	     -4.08860973	      0.66343557	      0.92511600	      0.77239442	     24.34597669	      6.95633110	     -3.80931680	     20.61910211	      0.35987122	      9.41933171	     -2.42237562	     -7.49999987	      6.19030448	     -8.88252900	     -7.86182293	     46.41581061	      0.81010872	     16.27373763	     -6.45296741	     -7.49999987	      5.97227498	      7.77721524	      1.76820692	     -9.15888407	     -9.55240219	     -9.71865781	     26.69783037	     72.93867403	      4.81630955	     -8.37643476	     15.74554939	     20.67599837	     66.02672709
     30.33333330	     -5.10302775	     -5.09302550	     -4.63286663	      0.66637604	      0.92689038	      0.77608100	     22.13053599	      7.72117534	     -3.32073059	     19.57963955	      0.34172918	     10.44474850	     -2.00884960	     -7.49999987	      7.42852404	     -9.20306972	     -7.11760636	     51.16678541	      0.89302887	     14.26163757	     -8.20883165	     -7.49999987	      5.92215140	      8.13282560	      2.55264295	     -7.98107159	     -9.96033217	     -7.97613431	     25.21804382	     73.31082374	      3.94450810	     -7.94216763	     15.66405010	     19.31302118	     65.74936317
     30.35000000	     -4.77935603	     -5.19697789	     -5.27204949	      0.66719121	      0.92986461	      0.77760781	     19.89066867	      8.39282990	     -2.66951982	     18.38284432	      0.32084116	     11.18147661	     -1.75280406	     -7.49999987	      8.67767254	     -9.40007561	     -6.61237846	     55.14229405	      0.96241459	     13.00263004	     -9.12672631	     -7.49999987	      5.78581258	      8.46443920	      3.57601946	     -7.28787222	    -10.26053798	     -7.71213130	     25.00480078	     73.36053440	      2.88569073	     -7.61275921	     15.76968144	     18.78930642	     65.73440050
     30.36666670	     -4.48074231	     -4.95194397	     -5.89835244	      0.66592947	      0.93294858	      0.77756235	     17.72307618	      8.55324301	     -1.88771608	     17.12851982	      0.29894907	     11.62158431	     -1.32423022	     -7.49999987	     10.18873578	     -9.11168768	     -6.23758996	     58.40531753	      1.01936509	     12.05329350	     -9.88401343	     -7.49999987	      5.53651520	      8.34718164	      4.47612160	     -6.48518636	    -10.50392604	     -7.46113778	     24.96788364	     73.37351542	      1.85016996	     -7.42947447	     15.93410660	     18.21120715	     65.73749089
     30.38333330	     -3.97931422	     -4.61535022	     -6.41509080	      0.66419303	      0.93621607	      0.77694689	     15.41923517	      8.40005054	     -1.22591499	     15.82708453	      0.27623474	     11.80138560	     -0.78521616	     -7.49999987	     11.84660603	     -8.61111914	     -5.90949511	     61.10658867	      1.06651117	     11.03195417	    -10.97271580	     -7.49999987	      4.94965487	      8.13117986	      5.16905553	     -5.14763208	    -10.93373766	     -6.55095560	     24.38856155	     73.50864923	      1.20791759	     -7.13695384	     16.60735776	     16.64967579	     65.91993922
     30.40000000	     -3.76238425	     -3.90534178	     -7.08158697	      0.66269453	      0.93914559	      0.77711575	     13.72213314	      7.83962504	     -0.30111824	     14.86219346	      0.25939421	     12.16638272	     -0.32905536	     -7.49999987	     13.99669372	     -7.82807327	     -6.00314396	     63.24361429	      1.10380930	     10.70410458	    -10.88979620	     -7.49999987	      4.49213843	      7.51491642	      6.10128579	     -4.05401953	    -11.21957587	     -6.47530376	     24.79937084	     73.49743148	      0.26267774	     -7.11831286	     16.75537463	     16.33225536	     65.95342606
     30.41666670	     -3.36293541	     -3.30818166	     -7.73022107	      0.66059502	      0.94186426	      0.77779854	     11.92798860	      7.31067727	      0.69041655	     13.89819970	      0.24256934	     12.49141046	      0.02752695	     -7.49999987	     15.92970145	     -7.21769601	     -6.31967871	     64.64692561	      1.12830170	     10.51899224	    -10.32899559	     -7.49999987	      3.77165624	      6.93973926	      6.83450948	     -2.65385633	    -11.83640310	     -4.58440785	     25.10716209	     72.92044295	     -0.30310140	     -7.11476704	     18.82056849	     15.08000925	     66.63049163
     30.43333330	     -2.97561356	     -2.66430033	     -8.31962299	      0.65763023	      0.94303365	      0.77945375	     10.33791090	      6.64182674	      1.42045244	     13.12487594	      0.22907230	     13.08100094	      0.77309470	     -7.49999987	     17.74242839	     -6.56026444	     -6.76876975	     65.01939537	      1.13480253	     10.44204460	     -9.45172513	     -7.49999987	      2.86448824	      6.24710123	      7.60365571	     -1.49087281	    -12.16658892	     -4.49804811	     26.28142237	     71.91661665	     -1.15060731	     -7.19214957	     18.88937882	     15.26357699	     66.25311510
     30.45000000	     -2.93852795	     -2.10184532	     -8.85843530	      0.65457446	      0.94214090	      0.78180202	      9.24453649	      6.10628483	      2.14416884	     12.55825557	      0.21918291	     13.54451868	      1.02766157	     -7.49999987	     19.72226091	     -6.10483338	     -7.30416022	     64.39417494	      1.12389037	     10.32072421	     -8.57985508	     -7.49999987	      2.51519189	      5.63952510	      8.28671787	     -0.31096528	    -12.45664230	     -4.35590031	     27.38395481	     71.67625207	     -1.96800368	     -7.32471245	     19.08927453	     15.23301791	     66.22871579
     30.46666670	     -2.67786186	     -1.70526363	     -9.24454990	      0.65132224	      0.94126680	      0.78304700	      8.01205947	      5.65310809	      2.61298145	     12.27421099	      0.21422539	     14.01368050	      1.13451495	     -7.49999987	     21.11540496	     -5.85087875	     -7.89902240	     62.75098498	      1.09521130	     10.29571688	     -7.50800973	     -7.49999987	      1.76765582	      5.12509599	      8.98606589	      1.02677604	    -12.97487070	     -3.58721125	     28.04847223	     71.81186412	     -2.33443999	     -7.37373688	     19.58945795	     14.98179570	     66.57911039
     30.48333330	     -2.81458078	     -1.31904715	     -9.54053495	      0.64812957	      0.94029350	      0.78277962	      7.40315092	      5.21272208	      2.73293048	     12.44301343	      0.21717155	     14.51019675	      1.32413488	     -7.49999987	     22.56448337	     -5.65513688	     -8.50175651	     60.26739680	      1.05186451	      9.91220393	     -6.73306439	     -7.49999987	      1.67516441	      4.74364006	      9.26547040	      2.56941289	    -13.64932996	     -1.64072491	     28.69503104	     72.04727421	     -3.12474751	     -7.50242138	     20.47634648	     14.96828322	     67.37381843
     30.50000000	     -2.97259625	     -1.08563067	     -9.75050049	      0.64523598	      0.93871431	      0.78196473	      7.04780242	      4.88550309	      2.60163972	     13.05019034	      0.22776879	     14.99271071	      1.38934555	     -7.49999987	     23.72108413	     -5.63292798	     -9.17697795	     57.15672026	      0.99757296	      9.36651945	     -6.00637320	     -7.49999987	      1.53059465	      4.52006961	      9.41866779	      4.08235852	    -14.17791354	     -0.85732267	     29.45879366	     74.44502185	     -4.05905880	     -7.51588574	     19.40426663	     15.34011677	     71.31276348
